<svg xmlns="http://www.w3.org/2000/svg" xmlns:xlink="http://www.w3.org/1999/xlink" style="enable-background:new 0 0 64 64" id="Layer_1_1_" width="512" height="512" x="0" y="0" version="1.1" viewBox="0 0 64 64" xml:space="preserve"><g><g><g><path style="fill:#00b7ff" d="M59,23H41V11h18V23z" class="active-path" data-old_color="#00BFFF" data-original="#F0BC5E"/></g><g><path style="fill:#00b7ff" d="M59,35H41v-9h18V35z" class="active-path" data-old_color="#00BFFF" data-original="#F0BC5E"/></g><g><rect style="fill:#00b7ff" width="32" height="12" x="5" y="23" class="active-path" data-old_color="#00BFFF" data-original="#F0BC5E"/></g><g><path style="fill:#00b7ff" d="M19,47H5V37h14V47z" class="active-path" data-old_color="#00BFFF" data-original="#F0BC5E"/></g><g><path style="fill:#00b7ff" d="M35,47H21V37h14V47z" class="active-path" data-old_color="#00BFFF" data-original="#F0BC5E"/></g><g><path d="M58,1H42c-2.757,0-5,2.243-5,5v13H6c-2.757,0-5,2.243-5,5v28c0,2.757,2.243,5,5,5h13v4h-4v2h26v-2h-4v-4h13 c2.757,0,5-2.243,5-5v-5h3c2.757,0,5-2.243,5-5V6C63,3.243,60.757,1,58,1z M42,3h16c1.654,0,3,1.346,3,3v1H39V6 C39,4.346,40.346,3,42,3z M61,9v28H39V9H61z M35,61H21v-4h14V61z M50,55H6c-1.654,0-3-1.346-3-3v-1h50v1 C53,53.654,51.654,55,50,55z M53,49H3V24c0-1.654,1.346-3,3-3h31v21c0,2.757,2.243,5,5,5h11V49z M58,45H42c-1.654,0-3-1.346-3-3 v-3h22v3C61,43.654,59.654,45,58,45z" data-original="#000000" style="fill:#000"/><rect width="6" height="2" x="47" y="41" data-original="#000000" style="fill:#000"/><rect width="2" height="2" x="57" y="33" data-original="#000000" style="fill:#000"/><rect width="14" height="2" x="41" y="33" data-original="#000000" style="fill:#000"/><rect width="18" height="2" x="41" y="29" data-original="#000000" style="fill:#000"/><rect width="18" height="2" x="41" y="25" data-original="#000000" style="fill:#000"/><rect width="14" height="2" x="21" y="37" data-original="#000000" style="fill:#000"/><rect width="14" height="2" x="21" y="41" data-original="#000000" style="fill:#000"/><rect width="10" height="2" x="21" y="45" data-original="#000000" style="fill:#000"/><rect width="2" height="2" x="33" y="45" data-original="#000000" style="fill:#000"/></g></g></g></svg>