<svg xmlns="http://www.w3.org/2000/svg" viewBox="0 0 258.52 177.05"><defs><style>.cls-1{isolation:isolate}.cls-2{fill:#f9f5ff}.cls-3{fill:#d7d7f4}.cls-4{fill:#4c8}.cls-5{fill:#46cccc}.cls-20,.cls-34,.cls-5,.cls-6{opacity:.4}.cls-6{fill:#48cc90}.cls-7{fill:#5439f7}.cls-15,.cls-16,.cls-8{fill:#7bcaff}.cls-27,.cls-28,.cls-8{opacity:.5}.cls-9{fill:#d3d3d3}.cls-10{fill:#f2f2f2}.cls-11{fill:#f9f4ea}.cls-12{fill:#bbceff}.cls-13{fill:#f6f3ff}.cls-14,.cls-16,.cls-23{opacity:.6}.cls-17{fill:#edf4fc}.cls-18{fill:#ffc550}.cls-19{fill:#a6edc8}.cls-20,.cls-25{fill:#375e82}.cls-20,.cls-27,.cls-28,.cls-34{mix-blend-mode:multiply}.cls-21{fill:#38464c}.cls-22{fill:#676772}.cls-23{fill:#bde5f2}.cls-24{fill:#e3fbff;opacity:.3}.cls-26{fill:#d1d9fe}.cls-27{fill:#abb2b7}.cls-28{fill:#cad3db}.cls-29{fill:#fff}.cls-30{fill:#32a066}.cls-31{fill:#72edad}.cls-32{fill:#ffe1ab}.cls-33{fill:#2aa866}.cls-35{fill:#e2e2e2}.cls-36{fill:#d6ddea}.cls-37{fill:#31af6d}.cls-38{fill:#40f}.cls-39{fill:#ffaf84}.cls-40{fill:#2e2947}.cls-41{fill:#ed8c62}.cls-42{fill:#454068}.cls-43{fill:#370bd8}.cls-44{fill:#332f4f}.cls-45{fill:#35b773}</style></defs><title>Ativo 2</title><g class="cls-1"><g id="Camada_2" data-name="Camada 2"><g id="Objects"><path d="M7.06,137.39c2.32,4.85,11.25,23.54,32.38,33.15,4.49,2,25.62,11.65,43.42,2.87,23.54-11.62,16.08-43,38-58.72,18.84-13.5,39.32,11.44,62-.9,11.82-6.44,21.25-20.37,21.55-32.83.94-38.89-86.07-104.22-150.1-72.6C7.66,31.4-11.62,98.31,7.06,137.39Z" class="cls-2"/><path d="M180.11,163.75a66.13,66.13,0,0,1-21.34-3.44c-24.26-8.25-42.95-32.31-50-64.36-5.43-24.69-2.26-47.76,7.87-57.39,6.9-6.56,19.8-9.23,30-6.21,9.68,2.86,13.84,10.47,17.87,17.83,3.92,7.16,7.62,13.92,16.16,15.34,9.62,1.6,17.66-2.37,25.42-6.21,8.76-4.32,17-8.41,27.16-5,9.44,3.21,17.36,12.25,22.29,25.45,2.87,7.69,5.13,20.17-.45,35.91h0C246.05,141.21,213,163.75,180.11,163.75ZM137.68,32.11c-7.71,0-15.54,2.61-20.34,7.18-9.89,9.4-12.94,32.09-7.58,56.46,7,31.71,25.41,55.49,49.33,63.63,38.2,13,84.19-13.34,95.06-44,5.48-15.46,3.28-27.69.46-35.23-4.82-12.91-12.52-21.73-21.67-24.85-9.74-3.32-17.83.68-26.39,4.91-7.91,3.91-16.1,8-26,6.3-9-1.5-12.83-8.47-16.87-15.85-3.93-7.18-8-14.6-17.27-17.35A30.77,30.77,0,0,0,137.68,32.11Z" class="cls-3"/><path d="M73.2,40.49l-3.63-3.63,1.35-1.57a11.39,11.39,0,0,1-1.34-3.23l-2.06-.15V26.78l2.06-.15a11.39,11.39,0,0,1,1.34-3.23l-1.35-1.57L73.2,18.2l1.57,1.35A11.4,11.4,0,0,1,78,18.21l.15-2.06h5.13l.15,2.06a11.39,11.39,0,0,1,3.23,1.34l1.57-1.35,3.63,3.63L90.52,23.4a11.42,11.42,0,0,1,1.34,3.23l2.06.15v5.13l-2.06.15a11.42,11.42,0,0,1-1.34,3.23l1.35,1.57-3.63,3.63-1.57-1.35a11.39,11.39,0,0,1-3.23,1.34l-.15,2.06H78.15L78,40.48a11.39,11.39,0,0,1-3.23-1.34ZM83,33.23a4.51,4.51,0,1,0-4.5,0A4.47,4.47,0,0,0,83,33.23Z" class="cls-4"/><path d="M56.16,26.07l-1.07-2.48,1-.51a6,6,0,0,1,0-1.84l-1-.48,1-2.52,1,.33a6,6,0,0,1,1.28-1.32l-.36-1,2.48-1.07.51,1a6,6,0,0,1,1.84,0l.48-1,2.52,1-.33,1a6,6,0,0,1,1.32,1.28l1-.36,1.07,2.48-1,.51a6,6,0,0,1,0,1.84l1,.48-1,2.52-1-.33a6,6,0,0,1-1.28,1.32l.36,1L63.53,29,63,28a6,6,0,0,1-1.84,0l-.48,1-2.51-1,.33-1a6,6,0,0,1-1.32-1.28Zm6.2-1.66a2.37,2.37,0,0,0-.7-4.68,2.37,2.37,0,0,0-2,2.69,2.33,2.33,0,0,0,.17.59,2.4,2.4,0,0,0,.32.53A2.37,2.37,0,0,0,62.36,24.41Z" class="cls-5"/><circle cx="140.83" cy="10.99" r="1.67" class="cls-6"/><path d="M26.5,95.5a2.6,2.6,0,1,1,2.6-2.6A2.6,2.6,0,0,1,26.5,95.5Zm0-4.19a1.6,1.6,0,1,0,1.6,1.6A1.6,1.6,0,0,0,26.5,91.31Z" class="cls-5"/><path d="M135.91,16.86v-.94h.94a.77.77,0,0,0,0-1.54h-.94v-.94a.77.77,0,1,0-1.54,0v.94h-.94a.77.77,0,0,0,0,1.54h.94v.94a.77.77,0,1,0,1.54,0Z" class="cls-5"/><circle cx="23.57" cy="85.41" r=".83" class="cls-6"/><path d="M220,136.8a5.65,5.65,0,0,1-5.31,6l-59.63,3.47-5.45.32-3.66.21-5.53.32-8.75.51-7.24.42-3.08.18-7.22.42L57,152a5.65,5.65,0,0,1-6-5.31L44.94,42.27l169-9.85Z" class="cls-7"/><path d="M200.31,132.24,51.52,147a9.67,9.67,0,0,1-10.58-8.66L33,58.92a9.67,9.67,0,0,1,8.66-10.58l148.79-14.8a9.67,9.67,0,0,1,10.58,8.66L209,121.67A9.67,9.67,0,0,1,200.31,132.24Z" class="cls-8"/><rect width="79.95" height="87.94" x="64.31" y="51.95" class="cls-8" rx="4.93" ry="4.93"/><path d="M214,32.43l-169,9.85-.79-13.55a2.32,2.32,0,0,1,2.18-2.46l164.38-9.58a2.32,2.32,0,0,1,2.45,2.18Z" class="cls-9"/><rect width="163.05" height="5.25" x="47.57" y="28.78" class="cls-10" transform="translate(-1.61 7.56) rotate(-3.33)"/><rect width="2.73" height="2.73" x="47.37" y="28.96" class="cls-11" transform="translate(-1.68 2.88) rotate(-3.33)"/><rect width="2.73" height="2.73" x="52.21" y="28.68" class="cls-11" transform="translate(-1.66 3.17) rotate(-3.34)"/><rect width="2.73" height="2.73" x="57.05" y="28.4" class="cls-11" transform="translate(-1.63 3.45) rotate(-3.34)"/><path d="M60.88,74.8a2.28,2.28,0,0,1-2.27-2.15l-.7-12a2.28,2.28,0,0,1,2.14-2.41l70.68-4.12a2.29,2.29,0,0,1,2.41,2.14l.7,12a2.28,2.28,0,0,1-2.14,2.41L61,74.8Zm70-19.52h-.07L60.12,59.4A1.17,1.17,0,0,0,59,60.63l.7,12A1.16,1.16,0,0,0,61,73.69l70.68-4.12a1.17,1.17,0,0,0,1.1-1.23l-.7-12A1.17,1.17,0,0,0,130.87,55.28Z" class="cls-12"/><path d="M62.06,95.1A2.28,2.28,0,0,1,59.79,93l-.7-12a2.28,2.28,0,0,1,2.14-2.41l70.68-4.12a2.29,2.29,0,0,1,2.41,2.14l.7,12A2.28,2.28,0,0,1,132.88,91L62.2,95.1Zm70-19.52H132L61.3,79.7a1.17,1.17,0,0,0-1.1,1.23l.7,12A1.17,1.17,0,0,0,62.13,94l70.68-4.12a1.17,1.17,0,0,0,1.1-1.23l-.7-12A1.17,1.17,0,0,0,132,75.58Z" class="cls-12"/><path d="M128.47,88.91,57.68,87.76A1.72,1.72,0,0,1,56,86l.2-12a1.72,1.72,0,0,1,1.75-1.69l70.79,1.15a1.72,1.72,0,0,1,1.69,1.75l-.19,12A1.72,1.72,0,0,1,128.47,88.91Z" class="cls-13"/><path d="M63.25,115.4A2.28,2.28,0,0,1,61,113.25l-.7-12a2.28,2.28,0,0,1,2.14-2.41l70.68-4.12a2.3,2.3,0,0,1,2.41,2.14l.7,12a2.28,2.28,0,0,1-2.14,2.41L63.38,115.4Zm70-19.52h-.07L62.48,100a1.17,1.17,0,0,0-1.1,1.23l.7,12a1.18,1.18,0,0,0,1.23,1.1L134,110.17a1.17,1.17,0,0,0,1.1-1.23l-.7-12A1.17,1.17,0,0,0,133.23,95.88Z" class="cls-12"/><path d="M228.74,107.3l-66.43-3.78a3.59,3.59,0,0,1-3.38-3.79l5-87.33A3.59,3.59,0,0,1,167.68,9l66.43,3.78a3.59,3.59,0,0,1,3.38,3.79l-5,87.33A3.59,3.59,0,0,1,228.74,107.3Z" class="cls-5"/><path d="M64.43,135.7a2.28,2.28,0,0,1-2.27-2.15l-.7-12a2.28,2.28,0,0,1,2.14-2.41l70.68-4.12a2.23,2.23,0,0,1,1.65.57,2.26,2.26,0,0,1,.76,1.57l.7,12a2.28,2.28,0,0,1-2.14,2.41L64.56,135.7Zm70-19.52h-.07L63.67,120.3a1.17,1.17,0,0,0-1.1,1.23l.7,12a1.18,1.18,0,0,0,1.23,1.1l70.68-4.12a1.17,1.17,0,0,0,1.1-1.23l-.7-12a1.17,1.17,0,0,0-1.16-1.1Z" class="cls-12"/><g class="cls-14"><rect width="1.75" height="29.84" x="73.91" y="61.17" class="cls-15" transform="translate(-2.52 149.63) rotate(-89.07)"/><rect width="1.75" height="29.84" x="73.86" y="64.29" class="cls-15" transform="translate(-5.68 152.64) rotate(-89.07)"/><rect width="1.75" height="13.23" x="65.5" y="75.57" class="cls-15" transform="matrix(0.02, -1, 1, 0.02, -16.87, 147.21)"/></g><rect width="8.07" height="8.07" x="107.59" y="75.82" class="cls-16" transform="matrix(0.02, -1, 1, 0.02, 29.96, 190.16)"/><rect width="8.07" height="8.07" x="116.98" y="75.97" class="cls-16" transform="translate(39.05 199.69) rotate(-89.07)"/><rect width="45.27" height="1.12" x="190.59" y="100.91" class="cls-4" transform="translate(109.99 313.85) rotate(-89.52)"/><rect width="15.24" height="1.12" x="156.09" y="115.51" class="cls-17" transform="translate(46.28 278.81) rotate(-89.52)"/><rect width="31.92" height="1.12" x="172.52" y="107.38" class="cls-17" transform="translate(78.96 295.51) rotate(-89.52)"/><path d="M213.22,113.49h-.08c-6.64-.06-9.83-7.36-12.92-14.42s-6-13.64-11.81-13.69h-.06c-5.8,0-8.8,6.55-12,13.49s-6.5,14.2-13.08,14.2h-.08v-1.22h.07c5.8,0,8.8-6.55,12-13.49s6.5-14.2,13.08-14.2h.08c6.64.06,9.83,7.36,12.92,14.42s6,13.64,11.81,13.69h.06c5.81,0,8.8-6.55,12-13.49s6.5-14.2,13.09-14.2h.08V85.8h-.07c-5.81,0-8.8,6.55-12,13.49S219.8,113.49,213.22,113.49Z" class="cls-18"/><rect width="4.87" height="9.75" x="200.62" y="70.43" class="cls-19" transform="translate(116.36 273.76) rotate(-86.75)"/><rect width="4.87" height="9.75" x="183.39" y="69.45" class="cls-19" transform="translate(101.09 255.64) rotate(-86.75)"/><rect width="4.87" height="9.75" x="166.16" y="68.47" class="cls-19" transform="translate(85.81 237.51) rotate(-86.75)"/><rect width="30.13" height="2.36" x="68.79" y="102.65" class="cls-8" transform="translate(-5.89 5.05) rotate(-3.33)"/><rect width="20.29" height="2.36" x="69.04" y="107.12" class="cls-8" transform="translate(-6.17 4.79) rotate(-3.34)"/><rect width="5.06" height="2.36" x="91.66" y="106.24" class="cls-8" transform="translate(-6.08 5.65) rotate(-3.33)"/><rect width="30.13" height="2.36" x="66.46" y="62.54" class="cls-8" transform="translate(-3.57 4.85) rotate(-3.33)"/><rect width="17.93" height="2.36" x="66.71" y="67.07" class="cls-8" transform="translate(-3.84 4.52) rotate(-3.33)"/><rect width="18.99" height="2.36" x="86.96" y="65.86" class="cls-8" transform="translate(-3.73 5.72) rotate(-3.33)"/><rect width="12.03" height="2.36" x="69.99" y="123.48" class="cls-8" transform="translate(-7.11 4.63) rotate(-3.33)"/><rect width="12.03" height="2.36" x="84.24" y="122.65" class="cls-8" transform="translate(-7.04 5.45) rotate(-3.33)"/><rect width="20.29" height="2.36" x="70.23" y="127.42" class="cls-8" transform="translate(-7.35 4.9) rotate(-3.34)"/><rect width="19.99" height="2.36" x="92.83" y="126.11" class="cls-8" transform="translate(-7.23 6.19) rotate(-3.33)"/><path d="M86.93,68.77a24.8,24.8,0,0,0-34.69,35.36l-2.3,2.59-.54-.47-.7.72.54,9.35,4.83-5.91-.54-.48,2.31-2.59A24.8,24.8,0,0,0,86.93,68.77ZM84.05,99.41a18.19,18.19,0,1,1,4.58-13.17A18.24,18.24,0,0,1,84.05,99.41Z" class="cls-20"/><rect width="8.81" height="4.83" x="36.02" y="92.85" class="cls-21" transform="translate(-57.61 62.13) rotate(-48.33)"/><path d="M18.41,120h0a4.26,4.26,0,0,0,6.13-.49L41.28,99,36.6,94.85l-18.42,19A4.26,4.26,0,0,0,18.41,120Z" class="cls-22"/><path d="M36.18,77.16A21.5,21.5,0,0,0,72.09,91.83a20.92,20.92,0,0,0,3.3-3.77A21.71,21.71,0,0,0,77,85.41a21.33,21.33,0,0,0,2.2-9.06c0-.55,0-1.12,0-1.69A21.52,21.52,0,0,0,56.39,54.43c-.57,0-1.14.09-1.69.16A21.26,21.26,0,0,0,46,57.84a21.75,21.75,0,0,0-2.46,1.86,21,21,0,0,0-3.36,3.72A21.43,21.43,0,0,0,36.18,77.16Z" class="cls-23"/><path d="M46,57.84,77,85.41a21.33,21.33,0,0,0,2.2-9.06L54.7,54.6A21.26,21.26,0,0,0,46,57.84Z" class="cls-24"/><path d="M40.15,63.41,72.09,91.83a20.92,20.92,0,0,0,3.3-3.77L43.51,59.7A21,21,0,0,0,40.15,63.41Z" class="cls-24"/><path d="M57.63,100.69a24.78,24.78,0,1,1,18.54-8.3A24.69,24.69,0,0,1,57.63,100.69Zm0-43q-.54,0-1.08,0a18.17,18.17,0,1,0,1.08,0Z" class="cls-25"/><path d="M194.31,66.1a24.46,24.46,0,0,0,33.91-15.62l-11.74-3.28a12.29,12.29,0,0,1-12.53,9A12.15,12.15,0,0,1,199.46,55Z" class="cls-18"/><path d="M186.39,60.22c.18.2.37.4.56.59l8.82-8.41A12.28,12.28,0,1,1,216,39.12l11.22-4.77a24.23,24.23,0,0,0-4.26-6.74,24.48,24.48,0,1,0-36.52,32.6Z" class="cls-17"/><path d="M216.92,44.61a12.38,12.38,0,0,1-.43,2.6l11.74,3.28a24.36,24.36,0,0,0-1-16.14L216,39.12A12.15,12.15,0,0,1,216.92,44.61Z" class="cls-4"/><path d="M186.94,60.8a24.13,24.13,0,0,0,7.36,5.3L199.46,55a12.15,12.15,0,0,1-3.7-2.65Z" class="cls-26"/><path d="M169.64,27a4.3,4.3,0,0,1,5.61,3.4l-2.11.34a2.16,2.16,0,0,0-2-1.82,2.13,2.13,0,0,0-.81.11Z" class="cls-17"/><path d="M168.14,27.86l.11-.09,1.37,1.64a2.16,2.16,0,1,0,3.26,2.72l1.86,1.06a4.3,4.3,0,1,1-6.61-5.33Z" class="cls-18"/><path d="M173.16,31.2a2.19,2.19,0,0,0,0-.46l2.11-.34a4.28,4.28,0,0,1-.5,2.8l-1.86-1.06A2.14,2.14,0,0,0,173.16,31.2Z" class="cls-18"/><path d="M168.25,27.77a4.23,4.23,0,0,1,1.39-.78l.68,2a2.14,2.14,0,0,0-.7.39Z" class="cls-4"/><path d="M173.38,59A4.3,4.3,0,0,1,167,60.55l1.26-1.73a2.16,2.16,0,0,0,2.7-.14,2.13,2.13,0,0,0,.5-.65Z" class="cls-4"/><path d="M173.82,57.31s0,.09,0,.14l-2.13-.19a2.16,2.16,0,1,0-4.23.38l-2.07.57a4.3,4.3,0,1,1,8.44-.9Z" class="cls-26"/><path d="M167.92,58.51a2.14,2.14,0,0,0,.34.31L167,60.55a4.29,4.29,0,0,1-1.62-2.33l2.07-.57A2.14,2.14,0,0,0,167.92,58.51Z" class="cls-17"/><path d="M173.81,57.46a4.24,4.24,0,0,1-.43,1.53l-1.92-1a2.14,2.14,0,0,0,.22-.77Z" class="cls-18"/><path d="M168.35,47.92A4.3,4.3,0,0,1,166,43.83a4.26,4.26,0,0,1,.81-2.28l1.73,1.26a2.16,2.16,0,0,0,.14,2.7,2.13,2.13,0,0,0,.65.49Z" class="cls-26"/><path d="M170,48.37h-.14l.19-2.13a2.16,2.16,0,1,0-.38-4.23l-.57-2.06a4.3,4.3,0,1,1,.9,8.44Z" class="cls-4"/><path d="M168.83,42.46a2.21,2.21,0,0,0-.31.34l-1.73-1.26a4.28,4.28,0,0,1,2.33-1.62l.57,2.06A2.14,2.14,0,0,0,168.83,42.46Z" class="cls-18"/><path d="M169.88,48.36a4.24,4.24,0,0,1-1.53-.43l1-1.92a2.14,2.14,0,0,0,.77.22Z" class="cls-17"/><path d="M210.62,139.35l-6.37,15.77a1.67,1.67,0,0,1-2.17.92l-21.61-8.73a1.67,1.67,0,0,1-.92-2.17l6.37-15.77a1.67,1.67,0,0,1,2.17-.92l21.61,8.73A1.66,1.66,0,0,1,210.62,139.35Z" class="cls-27"/><path d="M211.77,137.52l-5.52,16.09a1.67,1.67,0,0,1-2.12,1l-22-7.56a1.67,1.67,0,0,1-1-2.12l5.52-16.09a1.67,1.67,0,0,1,2.12-1l22,7.56A1.67,1.67,0,0,1,211.77,137.52Z" class="cls-28"/><path d="M213.44,135,209,151.45a1.67,1.67,0,0,1-2,1.17l-22.48-6.14a1.67,1.67,0,0,1-1.17-2l4.48-16.4a1.67,1.67,0,0,1,2-1.17L212.27,133A1.67,1.67,0,0,1,213.44,135Z" class="cls-17"/><path d="M213.44,135l-1,3.64-25.69-7,1-3.64a1.67,1.67,0,0,1,2-1.17L212.27,133A1.67,1.67,0,0,1,213.44,135Z" class="cls-4"/><rect width="1.23" height="26.64" x="198.83" y="122.45" class="cls-29" transform="translate(15.93 292.4) rotate(-74.73)"/><circle cx="193.68" cy="130.02" r="1.99" class="cls-30" transform="translate(17.23 282.6) rotate(-74.73)"/><circle cx="207.32" cy="133.74" r="1.99" class="cls-30" transform="translate(23.69 298.5) rotate(-74.73)"/><path d="M193.68,131.38a1.35,1.35,0,0,1-.36,0,1.36,1.36,0,0,1-1-1.67l.78-2.85a1.36,1.36,0,1,1,2.63.72l-.78,2.85A1.36,1.36,0,0,1,193.68,131.38Z" class="cls-18"/><path d="M207.32,135.1a1.36,1.36,0,0,1-1.32-1.72l.78-2.85a1.36,1.36,0,1,1,2.63.72l-.78,2.85A1.36,1.36,0,0,1,207.32,135.1Z" class="cls-18"/><rect width="2.2" height="2.59" x="188.7" y="135.8" class="cls-31" transform="translate(7.55 284.08) rotate(-74.73)"/><rect width="2.2" height="2.59" x="205.96" y="140.52" class="cls-31" transform="translate(15.7 304.19) rotate(-74.72)"/><rect width="2.2" height="2.59" x="201.65" y="139.34" class="cls-31" transform="translate(13.68 299.18) rotate(-74.73)"/><rect width="2.2" height="2.59" x="197.33" y="138.16" class="cls-31" transform="translate(11.63 294.15) rotate(-74.73)"/><rect width="2.2" height="2.59" x="193.02" y="136.98" class="cls-31" transform="translate(9.59 289.12) rotate(-74.73)"/><rect width="2.2" height="2.59" x="187.76" y="139.25" class="cls-31" transform="translate(3.53 285.72) rotate(-74.73)"/><rect width="2.2" height="2.59" x="205.02" y="143.97" class="cls-31" transform="translate(11.7 305.84) rotate(-74.73)"/><rect width="2.2" height="2.59" x="200.71" y="142.79" class="cls-31" transform="translate(9.65 300.81) rotate(-74.73)"/><rect width="2.2" height="2.59" x="196.39" y="141.61" class="cls-31" transform="translate(7.6 295.76) rotate(-74.72)"/><rect width="2.2" height="2.59" x="192.07" y="140.43" class="cls-31" transform="translate(5.57 290.75) rotate(-74.73)"/><rect width="2.2" height="2.59" x="186.82" y="142.7" class="cls-31" transform="translate(-0.51 287.33) rotate(-74.72)"/><rect width="2.2" height="2.59" x="204.08" y="147.42" class="cls-31" transform="translate(7.68 307.48) rotate(-74.73)"/><rect width="2.2" height="2.59" x="199.76" y="146.24" class="cls-31" transform="translate(5.62 302.43) rotate(-74.72)"/><rect width="2.2" height="2.59" x="195.45" y="145.06" class="cls-31" transform="translate(3.59 297.41) rotate(-74.73)"/><rect width="2.2" height="2.59" x="191.13" y="143.88" class="cls-31" transform="translate(1.55 292.38) rotate(-74.73)"/><rect width="25.55" height="13.91" x="34.34" y="125.2" class="cls-18" rx="1.6" ry="1.6" transform="translate(-24.35 11.42) rotate(-11)"/><path d="M33.55,129.33l.11.57,12,4.63a3.58,3.58,0,0,0,3.74-.73L58.74,125l-.11-.56a1.61,1.61,0,0,0-1.88-1.27l-21.94,4.26A1.6,1.6,0,0,0,33.55,129.33Z" class="cls-32"/><circle cx="36.55" cy="140.86" r="4" class="cls-4" transform="translate(-26.19 9.56) rotate(-11)"/><path d="M89.77,157.9l-6.53,6.53L76.7,157.9a9.24,9.24,0,1,1,13.06,0Z" class="cls-4"/><circle cx="83.23" cy="151.37" r="3.17" class="cls-33" transform="translate(-82.66 103.21) rotate(-45.01)"/><g class="cls-34"><path d="M140.74,80.39a8.22,8.22,0,0,0-1-3.18C138,73.32,134,67.63,131.4,64a1.72,1.72,0,0,0-.26-.29,1.77,1.77,0,0,0-1.57-.94H125a18.88,18.88,0,0,0,.14-3.53,8,8,0,0,0,3.37-3.39,1.09,1.09,0,0,0,1.06-.2,2.9,2.9,0,0,0,1-2.22,2.94,2.94,0,0,0-.46-1.56,7.87,7.87,0,0,0,.29-1.53c.14-1.79,0-3.77-2.27-4.66.9-1.41-2.6-4.37-5.53-3.36-6.73,2.33-6.77-.22-6.77-.22-2.91.85-3.19,3.53-1.9,4.71a5.07,5.07,0,0,0-.7,3.53c0,.25.07.55.13.87s-.06.6-.06.91A8.05,8.05,0,0,0,120,60.09a10.41,10.41,0,0,1-.24,2.71h-5.16a1.78,1.78,0,0,0-1.4.68,2.11,2.11,0,0,0-.51.44c-2.81,3.36-9.4,11.51-9.93,14.41-.4,2.16,2.18,7.84,4.7,12.73a2.85,2.85,0,0,1-.72.43,2.14,2.14,0,1,0,1.4,4,7.2,7.2,0,0,0,2.08-1.2c-.09,1.88-.14,3-.14,3s-.25,5.74.15,11.55c.09,2.26.84,19.71,1.85,26.39.45,3,1.26,8.25,2,13.3l7.22-.42c-.81-5.24-1.67-10.86-2.14-14-.89-5.88-1.6-21.62-1.75-25.13h3.18c.12,2.92.86,19.69,1.84,26.21.43,2.85,1.2,7.83,2,12.7l7.24-.42c-.79-5.06-1.61-10.38-2.06-13.36-1-6.6-1.78-25.64-1.79-25.83a2.41,2.41,0,0,0,0-.38,21.47,21.47,0,0,0,.35-10.65c-.06-.78-.08-1.68-.07-2.68a7.15,7.15,0,0,0,2,1.15,1.92,1.92,0,0,0,.7.12,2.14,2.14,0,0,0,.7-4.16l-.08,0c1.2-1.11,2.24-2.11,3.15-3C140.67,82.71,140.72,81,140.74,80.39Zm-30.13,7.29C108.77,84,107.14,80.18,107,79c.32-1,2.31-3.88,4.74-7.06C111.29,76.84,110.9,82.77,110.61,87.68Zm17.74,1.08c.44-6,1.34-13.17,2.14-18.59,3,4.33,5.62,8.64,5.94,10C135.75,81.48,132,85.32,128.35,88.76Z" class="cls-25"/><path d="M162.22,102.86a9.51,9.51,0,0,1-1.17-.57c1.57-2.42,4.39-7.77,3.62-14-.55-4.39-7.38-12.1-8.16-13a1.61,1.61,0,0,0-1.2-.52,2,2,0,0,0-.6-.1H149a19.3,19.3,0,0,1,.07-2.19A8.16,8.16,0,0,0,157,64.35S159.28,58,151,55c-.31-.11-.61-.19-.92-.27a4.71,4.71,0,0,0-1.4-1.95c-3.17-2.88-9.23-1.18-10.48,3.08-1.17,4,.33,5.47,1.75,8.21a2.61,2.61,0,0,0,.31,3.67,1,1,0,0,0,.24.14,14.24,14.24,0,0,1-1.83,4.46,13.39,13.39,0,0,0,5.11-1.59A7.88,7.88,0,0,0,146,72a20.56,20.56,0,0,0-.11,2.69h-3.42a1.79,1.79,0,0,0-1.21.47l-.13.13-.07.08-.07.09c-.15.21-.59.85-1.18,1.75C138,79.88,135,84.89,134.64,88.1q0,.33-.06.66c-.41,6.13,4.08,11.33,6.59,13.74a7.42,7.42,0,0,1-.79.36,1.58,1.58,0,0,0,.58,3,1.49,1.49,0,0,0,.58-.11l.52-.22c-1.76,8.64,1.1,22,1.1,22h.29c-.16,3-.36,5.7-.63,7.5-.41,2.69-1.36,7.36-2.36,12l5.53-.32c.89-4.26,1.71-8.39,2.1-10.93.31-2,.53-5,.69-8.29h3.39c-.22,3-.48,5.69-.75,7.5-.39,2.63-1.07,7-1.77,11.51l5.45-.32c.63-4.09,1.22-8,1.59-10.4.3-2,.59-5,.83-8.29h.5c.54-2.33,1-15.82,1.16-22.68a13.78,13.78,0,0,0,1.89.93,1.45,1.45,0,0,0,.58.11,1.58,1.58,0,0,0,.57-3Zm-18.33-2.16c-2-1.8-6.79-6.78-6.12-12.21.25-2,2-5.24,3.62-7.88C142.68,87.12,144.3,94.6,143.89,100.7Zm13.56-19.27c2,2.67,3.88,5.59,4.08,7.23a17.94,17.94,0,0,1-2.35,10.57C158.95,95.81,158.34,87.63,157.45,81.43Z" class="cls-25"/></g><path d="M97.86,175.56h66.77A1.57,1.57,0,0,0,166.2,174h0a1.57,1.57,0,0,0-1.57-1.57H97.86A1.57,1.57,0,0,0,96.29,174h0A1.57,1.57,0,0,0,97.86,175.56Z" class="cls-35"/><polygon points="126.9 169.43 126.05 162.82 122.95 162.36 124.44 169.28 126.9 169.43" class="cls-36"/><path d="M123.85,168.39a1.08,1.08,0,0,0-.54.23,10.66,10.66,0,0,1-4.2,2.54c-1.74.46-1,1.3.66,1.3,2.5,0,3.5-.1,4.62-.07s.39.07,3.14.07c1.26,0,.84-2.46.18-3.94a.88.88,0,0,0-1-.53Z" class="cls-4"/><polygon points="113.62 169.43 112.77 162.82 109.66 162.36 111.16 169.28 113.62 169.43" class="cls-36"/><path d="M110.56,168.39a1.08,1.08,0,0,0-.54.23,17.28,17.28,0,0,1-6,2.7c-1.78.26-1.87,1.14.63,1.14s4.34-.22,5.46-.19a32.31,32.31,0,0,0,3.57.19c2.11,0,1.45-2.69.69-3.94a.94.94,0,0,0-1-.53Z" class="cls-4"/><path d="M110.1,38c1.85-.33,5.3,3.4,1,8.94-3.06,3.94-4.7-1.11-4.87-3.32S106.29,38.69,110.1,38Z" class="cls-37"/><path d="M109.08,58.58a2.41,2.41,0,0,0-3.4.31c-3.16,3.79-10.59,13-11.19,16.25-.49,2.69,3.44,10,6.81,15.69l3-1.81c-3.88-5.58-4.07-10.71-5-13.09.56-1.79,5.93-7.64,10.42-13C110.53,61.89,110.1,59.44,109.08,58.58Z" class="cls-38"/><path d="M99.5,95A3.24,3.24,0,0,1,97.36,93c-1.12-2.76.64-2,1.9-2.44.63-.22,1.52-1.67,1.87-2.08a2.16,2.16,0,0,1,3.18-.35c1,.87.78,2.17.27,3.4a5.81,5.81,0,0,1-2.74,3.19A2.57,2.57,0,0,1,99.5,95Z" class="cls-39"/><path d="M119.65,54.92a12.61,12.61,0,0,1-1.43,6.44c-1.47,2.32-1.76,2.8-1.79,2.85a2.85,2.85,0,0,1-4.9-2.93s.23-.39,1.86-3a5.37,5.37,0,0,0,.5-2.22,19.15,19.15,0,0,0-.14-3.85,2.85,2.85,0,1,1,5.64-.84A23.4,23.4,0,0,1,119.65,54.92Z" class="cls-39"/><path d="M126.63,60c-1.41,8.1-4.17,28.44-3.57,36.63H102.74s1.22-30.15,3.15-37.49a2,2,0,0,1,1.94-1.49h16.82A2,2,0,0,1,126.63,60Z" class="cls-38"/><path d="M122.18,109.84s2.48-4.54.88-13.23H102.74s-.29,6.61.18,13.23Z" class="cls-40"/><path d="M124.42,138.21c-1.12-7.45-.81-29.57-1.27-32.11-.4-2.21-3.83-2.1-6.06-2s-4.34,3.07-4.25,5.31c0,.9,2.68,22.12,3.87,30,.86,5.68,4.62,20.59,6,27.25l5.15-.59C126.82,159.37,125.28,143.88,124.42,138.21Z" class="cls-40"/><path d="M113,138.17c-.61-7.63-.88-29.2-.89-29.42-.09-2.24-3.12-3.67-5.34-3.6a4.06,4.06,0,0,0-3.89,4.22c0,.9.91,22.12,2.1,30,.86,5.68,2.93,21.1,4.56,27.79l4.63-.58C113.14,159.92,113.48,143.89,113,138.17Z" class="cls-40"/><path d="M126.71,59a2.42,2.42,0,0,0-3.37-.53,3.27,3.27,0,0,0-.62,4c4.33,5.94,8.84,12.94,9.3,14.87-4.3,3.47-2.26,5.78-10.56,11.43l2.14,2.72c11.76-9.9,13.62-13.19,13.65-14.06C137.33,74.09,130.68,64.46,126.71,59Z" class="cls-38"/><path d="M119.65,54.92a9,9,0,0,1-4.6,1.25,7.45,7.45,0,0,1-1.16-.08,19.15,19.15,0,0,0-.14-3.85,2.85,2.85,0,1,1,5.64-.84A23.4,23.4,0,0,1,119.65,54.92Z" class="cls-41"/><path d="M106.68,45.77c0,5,3.69,9.3,8.7,9.3,4.27,0,9.08-4.43,9.08-9.44a9.07,9.07,0,0,0-9.08-9.08C110.37,36.55,106.68,40.76,106.68,45.77Z" class="cls-39"/><path d="M125.7,94.93a3.45,3.45,0,0,1-1.94-.69,8.56,8.56,0,0,1-2.65-2.37,2.45,2.45,0,0,1,3.8-3.08c.42.49,1.15,1.59,1.76,1.76,1.92.54,2.71,1.1,2,2.22C128,93.75,126.67,94.92,125.7,94.93Z" class="cls-39"/><path d="M121.7,38c-1.85-.33-5.65,4-.37,8.58,2.9,2.54,4.07-.76,4.25-3S125.51,38.69,121.7,38Z" class="cls-4"/><path d="M116.78,34.58c3.52-1.22,7.77,2.65,6,4.07-.79.63-.75.53-2.75,1.13S109.63,41,107.57,40s-2.07-4.64,1.58-5.7C109.16,34.33,109.2,37.21,116.78,34.58Z" class="cls-4"/><path d="M125.77,47.1a3.28,3.28,0,0,1-1.17,2.51,1.3,1.3,0,0,1-2.12-1v-3a1.3,1.3,0,0,1,2.12-1A3.28,3.28,0,0,1,125.77,47.1Z" class="cls-39"/><path d="M118.78,69.74l-4.5-5a.89.89,0,0,0-1.26-.06l-5.54,5.05h2.35l-.43,4.38a.89.89,0,0,0,.89,1h4.82a.89.89,0,0,0,.89-.81l.44-4.56Z" class="cls-17"/><path d="M111.52,57.63c-.47,1.64,1.08,2.6,3.79,2.22a13.18,13.18,0,0,0,5.48-2.22Z" class="cls-39"/><path d="M125.76,167.21c0-.23-3.57-22.81-4.12-30.09-.57-7.65-1.61-27-1.61-30V96.23h.5v10.9c0,3,1,22.31,1.61,30,.54,7.25,4.08,29.82,4.11,30Z" class="cls-42"/><rect width=".5" height="13.74" x="112.23" y="96.23" class="cls-42"/><path d="M112.48,107.08a2.5,2.5,0,0,1-2.5-2.5V96.23h.5v8.35a2,2,0,0,0,2,2Z" class="cls-42"/><path d="M154,46.37c-3.58-3.25-10.41-1.33-11.81,3.48s.59,6.36,2.27,9.85-1.75,8.72-1.75,8.72,10.55-.72,10.54-10C153.21,52.58,158.31,50.33,154,46.37Z" class="cls-43"/><path d="M156.32,80a1.8,1.8,0,0,1-.91.26,1.77,1.77,0,0,1-1.53-.87s-.3-.49-1.83-2.91c-1.24-2-1.35-5.08-1.24-7.17A21.62,21.62,0,0,1,151,67.1a1.78,1.78,0,0,1,3.52.52,18.52,18.52,0,0,0-.19,2.46,9.09,9.09,0,0,0,.72,4.46l1.87,3A1.79,1.79,0,0,1,156.32,80Z" class="cls-39"/><path d="M155.55,109.62c0,.71-.32,13.55-.9,23.12,0,.1,0,.2,0,.3-.18,2.69-.52,5.3-.79,7-1.19,7.89-6.86,29.16-7.07,30.07l-2.14-.17c.06-.22.24-21.64,2.72-30.91a34.36,34.36,0,0,0,.56-5.85c0-.11,0-.22,0-.33.59-9.45.64-23.19.65-23.36a3,3,0,0,1,3-3h0C153.25,106.54,155.55,108,155.55,109.62Z" class="cls-39"/><path d="M165.1,109.66c0,.7-.56,13.62-1.35,23.14a.28.28,0,0,0,0,.09c-.23,2.79-.48,5.28-.75,7.08-.92,6.09-5.61,23.62-6.59,29.92l-2.18-.46c0-18,1.66-25.43,2.72-29.69.37-1.48.21-4.35.14-6.76a2,2,0,0,1,0-.24c-.28-10,.16-17.92.1-22.77.07-1.66,3.36-3.46,5-3.43A3,3,0,0,1,165.1,109.66Z" class="cls-39"/><path d="M154.54,67.62a18.52,18.52,0,0,0-.19,2.46,8.92,8.92,0,0,1-3.54-.81A21.62,21.62,0,0,1,151,67.1a1.78,1.78,0,0,1,3.52.52Z" class="cls-41"/><path d="M162.9,59.38c-.81,5.07-3.45,9.93-8.53,9.93s-8.85-4.53-8.85-9.61,3.49-9.52,8.57-9.52S163.71,54.37,162.9,59.38Z" class="cls-39"/><path d="M169.46,102.89c-.88-.27-1.58.25-2.65-1.06,3.27-5.48,6-8.45,5.16-15.49-.61-5-8.31-13.64-9.19-14.61a1.78,1.78,0,0,0-2.65,2.38c3,3.36,7.95,9.77,8.3,12.66,1,7.89-4.36,14.61-4.41,14.68l-.07.11-.1.16-.07.15a1.75,1.75,0,0,0-.07.17c0,.05,0,.11,0,.16a1.69,1.69,0,0,0,0,.17,1.61,1.61,0,0,0,0,.17,1.46,1.46,0,0,0,0,.17,1.51,1.51,0,0,0,0,.16,1.75,1.75,0,0,0,0,.17c0,.05,0,.1.05.15a1.65,1.65,0,0,0,.07.17l.08.14.1.15.11.12.09.1.07.06h0a9.6,9.6,0,0,0,2.85,1.8,1.78,1.78,0,0,0,.65.12,3,3,0,0,0,2.32-1.33C170.47,103.65,170.4,103.18,169.46,102.89Z" class="cls-39"/><path d="M155.55,109.62c0,.71-.32,13.55-.9,23.12,0,.1,0,.2,0,.3l-6.72.18c0-.11,0-.22,0-.33.59-9.45.64-23.19.65-23.36a3,3,0,0,1,3-3h0C153.25,106.54,155.55,108,155.55,109.62Z" class="cls-41"/><path d="M165.1,109.66c0,.7-.56,13.62-1.35,23.14l-6.67.18a2,2,0,0,1,0-.24c-.28-10,.16-17.92.1-22.77.07-1.66,3.36-3.46,5-3.43A3,3,0,0,1,165.1,109.66Z" class="cls-41"/><path d="M147.73,130.63s-4.74-22.14.82-30.1h17.36s-.6,26.54-1.43,30.1Z" class="cls-4"/><path d="M165.84,99.53c0,.64.07,1,.07,1H148.55c0-.33,0-.66.06-1,0-.1,0-.2,0-.3,0-1.21,0-2.46-.07-3.74,0-.13,0-.26,0-.4,0-.47-.06-1-.11-1.43,0-.14,0-.27,0-.41-.12-1.19-.27-2.4-.45-3.62,0-.11,0-.22,0-.33-.07-.5-.15-1-.23-1.5a2.23,2.23,0,0,0,0-.26c-.2-1.26-.43-2.53-.67-3.78a0,0,0,0,0,0,0c-.11-.56-.21-1.13-.32-1.69,0,0,0-.07,0-.11-.24-1.2-.47-2.39-.71-3.54,0-.17-.07-.33-.1-.49-.07-.38-.15-.76-.22-1.13s-.09-.47-.13-.7c-.18-.91-.34-1.79-.49-2.65a1.14,1.14,0,0,1,0-.18,2,2,0,0,1,.27-1.21,2,2,0,0,1,1.76-1h13.81a2,2,0,0,1,1.75,1,1.8,1.8,0,0,1,.22.51c.06.25.13.51.18.78.16.68.32,1.45.47,2.28a3.78,3.78,0,0,1,1,.47,4.13,4.13,0,0,1,.91.81,3.68,3.68,0,0,1,.62,1,3.47,3.47,0,0,1,.21.62,4.21,4.21,0,0,1,.11.94,4,4,0,0,1-.84,2.47.5.5,0,0,1-.12.14,3.65,3.65,0,0,1-.84.78c0,.28.07.57.09.86a.09.09,0,0,1,0,.05c.14,1.23.27,2.48.39,3.71l0,.33c0,.48.09,1,.13,1.41,0,.14,0,.28,0,.42.1,1.21.21,2.38.29,3.48,0,.19,0,.37,0,.55,0,.44.07.86.09,1.26,0,.19,0,.38,0,.57.11,1.42.19,2.61.24,3.48C165.82,99.18,165.83,99.36,165.84,99.53Z" class="cls-40"/><path d="M165.8,99q-8.59-.16-17.18.26c0-1.21,0-2.46-.07-3.74,0-.13,0-.26,0-.4q8.49-.39,17-.17c0,.19,0,.38,0,.57C165.67,96.91,165.75,98.1,165.8,99Z" class="cls-44"/><path d="M165.37,93.11q-8.5-.22-17,.14c-.12-1.19-.27-2.4-.45-3.62,0-.11,0-.22,0-.33,5.71-.23,11.44-.26,17.16-.09,0,.14,0,.28,0,.42C165.18,90.84,165.29,92,165.37,93.11Z" class="cls-44"/><path d="M164.88,87.47q-8.64-.27-17.28.07c-.2-1.26-.43-2.53-.67-3.78a0,0,0,0,0,0,0q8.77-.31,17.56,0a.08.08,0,0,1,0,0C164.63,85,164.76,86.24,164.88,87.47Z" class="cls-44"/><path d="M166.19,79.46a4,4,0,0,1-.84,2.47.5.5,0,0,1-.12.14q-9.31-.36-18.63,0s0-.07,0-.11c-.24-1.2-.47-2.39-.71-3.54q10.09-.33,20.21.13A4.2,4.2,0,0,1,166.19,79.46Z" class="cls-44"/><path d="M165.25,76.88q-9.84-.44-19.7-.11c0-.23-.09-.47-.13-.7-.18-.91-.34-1.79-.49-2.65a1.14,1.14,0,0,1,0-.18q9-.29,18,.08c.16.68.32,1.45.47,2.28a3.79,3.79,0,0,1,1,.47A4.14,4.14,0,0,1,165.25,76.88Z" class="cls-44"/><path d="M150,103.35a1.71,1.71,0,0,0,.08-.22s0-.07,0-.11a1.93,1.93,0,0,0,0-.22s0-.08,0-.11a1.71,1.71,0,0,0,0-.23s0-.07,0-.11a1.86,1.86,0,0,0-.05-.23s0-.07,0-.11a1.71,1.71,0,0,0-.08-.19l-.06-.13-.1-.14-.11-.15,0,0-.12-.11-.1-.1c-.09-.07-8-6.83-7.84-14.58.06-3.38,4.84-10.27,6.51-12.64a1.78,1.78,0,0,0-2.91-2c-.67.95-6.53,9.41-7.13,14.25-.89,7.22,6.25,13,9.19,15.84-1.18,1.13-2,.69-2.72.79-1,.15-1,.86-.83,1.82a3.08,3.08,0,0,0,.6,1.34,1.38,1.38,0,0,0,1.75.28,15.46,15.46,0,0,0,3.39-2.25h0l.08-.07a1.61,1.61,0,0,0,.16-.18l0,0h0a1.79,1.79,0,0,0,.14-.22Z" class="cls-39"/><path d="M149.33,55.13c3.7,2.12,12.39,1.56,14,4.26,0,0,2.6-7.18-6.72-10.51C148,45.82,144.19,52.17,149.33,55.13Z" class="cls-38"/><path d="M149.83,51.29c2.41.86-1.05,8.69-4.92,8.69C143.25,60,143,48.88,149.83,51.29Z" class="cls-38"/><path d="M143.94,61a2.94,2.94,0,0,0,1,2.25,1.17,1.17,0,0,0,1.9-.92V59.65a1.17,1.17,0,0,0-1.9-.92A2.94,2.94,0,0,0,143.94,61Z" class="cls-39"/><polygon points="150.42 128.46 149.98 128.21 162.9 104.79 163.34 105.03 150.42 128.46" class="cls-45"/><polygon points="156.89 128.42 156.42 128.25 163.39 107.86 163.86 108.02 156.89 128.42" class="cls-45"/><path d="M148.89,71l.14.19A8.41,8.41,0,0,0,150.74,73a7.86,7.86,0,0,0,4.46,1.73,2.54,2.54,0,0,0,1.81-.62c.7-.68.69-1.81,0-3Z" class="cls-29"/><path d="M149.52,71a7.55,7.55,0,0,0,1.55,1.56c2,1.54,4.46,2,5.44,1.08.61-.59.52-1.59-.13-2.63Z" class="cls-39"/><path d="M146.93,169.51a.8.8,0,0,1,.39.17,7.73,7.73,0,0,0,3,1.85c1.26.34.76.94-.48.94-1.82,0-2.54-.07-3.35,0s-.29,0-2.28,0c-.91,0-.61-1.78-.13-2.86a.64.64,0,0,1,.72-.38Z" class="cls-44"/><path d="M156.51,169.51a.79.79,0,0,1,.39.17,12.55,12.55,0,0,0,4.32,2c1.29.19,1.36.83-.46.83s-3.15-.16-4-.14a23.1,23.1,0,0,1-2.59.14c-1.53,0-1.05-1.95-.5-2.86a.68.68,0,0,1,.72-.38Z" class="cls-44"/></g></g></g></svg>