<svg xmlns="http://www.w3.org/2000/svg" xmlns:svgjs="http://svgjs.com/svgjs" xmlns:xlink="http://www.w3.org/1999/xlink" style="enable-background:new 0 0 512 512" width="512" height="512" x="0" y="0" version="1.1" viewBox="0 0 512 512" xml:space="preserve"><g transform="matrix(1,0,0,1,84.99999999999991,0)"><linearGradient xmlns="http://www.w3.org/2000/svg" id="a" x1="166" x2="166" y1="0" y2="512" gradientUnits="userSpaceOnUse"><stop offset="0" stop-color="#ddacf6" stop-opacity="1"/><stop offset="1" stop-color="#4a2a74" stop-opacity="1"/></linearGradient><path xmlns="http://www.w3.org/2000/svg" fill="url(#a)" d="m166.238281 430.144531-89.769531-94.898437 29.058594-27.488282 60.632812 64.097657 60.273438-64.058594 29.132812 27.410156zm165.761719-38.144531v-272c0-66.167969-53.832031-120-120-120h-92c-66.167969 0-120 53.832031-120 120v272c0 66.167969 53.832031 120 120 120h92c66.167969 0 120-53.832031 120-120zm-120-352c44.113281 0 80 35.886719 80 80v272c0 44.113281-35.886719 80-80 80h-92c-44.113281 0-80-35.886719-80-80v-272c0-44.113281 35.886719-80 80-80zm-46 41c-11.046875 0-20 8.953125-20 20s8.953125 20 20 20 20-8.953125 20-20-8.953125-20-20-20zm0 80c-11.046875 0-20 8.953125-20 20s8.953125 20 20 20 20-8.953125 20-20-8.953125-20-20-20zm0 80c-11.046875 0-20 8.953125-20 20s8.953125 20 20 20 20-8.953125 20-20-8.953125-20-20-20zm0 0" data-original="url(#a)"/></g></svg>