<svg width="40" height="39" viewBox="0 0 40 39" fill="none" xmlns="http://www.w3.org/2000/svg">
<path d="M20.0872 19.0861C20.9531 19.0953 21.6782 19.4915 22.3114 20.1199C24.7476 22.5366 27.195 24.944 29.6377 27.3541C32.9323 30.6047 36.2305 33.8507 39.5109 37.1151C39.7445 37.3474 39.9162 37.6954 39.9847 38.0175C40.0653 38.3924 39.8177 38.6951 39.4744 38.8765C39.1282 39.0597 38.7774 39.0394 38.4566 38.8135C38.3055 38.7071 38.1751 38.5701 38.0429 38.4387C32.4266 32.8983 26.8113 27.3569 21.1951 21.8165C21.0178 21.6425 20.848 21.4583 20.6576 21.3009C20.2411 20.9576 19.7505 20.9659 19.3349 21.313C19.228 21.4027 19.1323 21.5055 19.0329 21.6036C13.3397 27.2218 7.6456 32.8381 1.95245 38.4553C1.86427 38.5423 1.77797 38.633 1.68416 38.7136C1.24514 39.0903 0.679484 39.0847 0.291123 38.7025C-0.0897344 38.3285 -0.098177 37.7491 0.273299 37.3234C0.344593 37.2419 0.426205 37.1688 0.503127 37.092C6.22911 31.4423 11.9579 25.7945 17.6792 20.1394C18.3387 19.4887 19.0844 19.0731 20.0872 19.0861Z" fill="white"/>
<path d="M29.4164 4.94159C30.4426 5.94768 31.4285 6.91397 32.4135 7.88026C32.5242 7.98855 32.6396 8.09406 32.7409 8.21068C33.0214 8.53185 33.0955 8.8993 32.9182 9.28619C32.7503 9.65271 32.4454 9.85726 32.0289 9.85819C29.3563 9.86096 26.6828 9.86559 24.0103 9.85541C23.4118 9.85356 22.9934 9.40929 23.0075 8.85765C23.0215 8.31157 23.4512 7.90155 24.0572 7.89784C25.7138 7.88859 27.3704 7.89414 29.028 7.89322C29.1772 7.89322 29.3263 7.89322 29.6077 7.89322C28.8591 7.15832 28.1987 6.51135 27.5402 5.86345C26.8113 5.14707 26.8132 4.71668 27.5496 3.99104C28.2006 3.34962 28.8545 2.71098 29.5702 2.00848C26.6847 2.00848 23.8864 2.00848 21.0131 2.00848C21.0131 2.17323 21.0131 2.35001 21.0131 2.5268C21.0131 7.15369 21.0131 11.7797 21.0122 16.4066C21.0122 17.2803 20.6698 17.7523 20.0263 17.7699C19.3677 17.7875 18.9963 17.2988 18.9953 16.4056C18.9944 11.3622 18.9935 6.31976 18.9944 1.27636C18.9944 0.347093 19.333 0.00370915 20.2514 0.00370915C24.0816 0.00370915 27.9117 0.00833697 31.7409 6.89951e-06C32.2643 -0.000918664 32.7165 0.0907121 32.9323 0.617358C33.1471 1.14215 32.891 1.52719 32.5204 1.88723C31.4961 2.88129 30.4858 3.8883 29.4164 4.94159Z" fill="white"/>
<path d="M14.0057 36.6894C13.1643 36.6921 12.4513 36.383 11.8594 35.8073C11.0245 34.9956 10.1972 34.1774 9.37353 33.3545C8.90825 32.8899 8.88573 32.2818 9.3013 31.8774C9.72437 31.4664 10.3069 31.496 10.7938 31.9708C11.5836 32.74 12.3632 33.5184 13.1502 34.2894C13.744 34.8706 14.2571 34.8743 14.8481 34.2958C15.8237 33.3397 16.7909 32.3753 17.7665 31.4192C19.1238 30.0892 20.893 30.0929 22.2551 31.4275C23.2195 32.3725 24.1772 33.3249 25.1397 34.2718C25.7504 34.8734 26.2598 34.8762 26.8704 34.2783C27.6462 33.5175 28.4154 32.7502 29.1922 31.9903C29.7006 31.4942 30.2916 31.459 30.7203 31.8866C31.1368 32.3031 31.0918 32.9029 30.5936 33.3981C29.7907 34.1968 28.9895 34.9984 28.1725 35.7842C26.9033 37.005 25.1162 37.0078 23.8508 35.7879C22.8452 34.8188 21.8611 33.8266 20.864 32.8483C20.2411 32.2374 19.7617 32.242 19.1351 32.8584C18.1501 33.8275 17.1689 34.7994 16.1849 35.7684C15.5826 36.3626 14.8641 36.6866 14.0057 36.6894Z" fill="white"/>
</svg>
